<?xml version="1.0" encoding="utf-8"?>
<!-- Generator: Adobe Illustrator 19.0.0, SVG Export Plug-In . SVG Version: 6.00 Build 0)  -->
<svg version="1.1" id="Layer_1" xmlns="http://www.w3.org/2000/svg" xmlns:xlink="http://www.w3.org/1999/xlink" x="0px" y="0px"
	 viewBox="0 0 3459.3 678.1" style="enable-background:new 0 0 3459.3 678.1;" xml:space="preserve">
<style type="text/css">
	.st0{fill:#FFFFFF;}
	.st1{fill:#C21C24;}
</style>
<g id="XMLID_55_">
	<g id="XMLID_4_">
		<rect id="XMLID_1_" x="280.3" y="91.5" class="st0" width="154" height="31"/>
		<rect id="XMLID_2_" x="280.3" y="91.5" class="st0" width="31" height="154"/>
	</g>
	<g id="XMLID_5_">
		<rect id="XMLID_7_" x="280.3" y="449.4" class="st0" width="31" height="154"/>
		<rect id="XMLID_6_" x="280.3" y="572.4" class="st0" width="154" height="31"/>
	</g>
	<g id="XMLID_11_">
		<rect id="XMLID_13_" x="638.2" y="572.4" class="st0" width="154" height="31"/>
		<rect id="XMLID_12_" x="761.2" y="449.4" class="st0" width="31" height="154"/>
	</g>
	<g id="XMLID_8_">
		<rect id="XMLID_10_" x="761.2" y="91.5" class="st0" width="31" height="154"/>
		<rect id="XMLID_9_" x="638.2" y="91.5" class="st0" width="154" height="31"/>
	</g>
	<circle id="XMLID_15_" class="st1" cx="646.9" cy="237.9" r="51.5"/>
	<g id="XMLID_20_">
		<path id="XMLID_21_" class="st0" d="M933.4,227.5v264.6h-36.1V203.5h58.1l168.2,252.6l168.4-252.6h59.5v288.7h-36.1V231.5
			l-171.4,260.7h-36.5L933.4,227.5z"/>
		<path id="XMLID_23_" class="st0" d="M1537.9,496.3c-24.1,0-44.5-1.7-61.3-5c-16.8-3.3-30.4-9.1-41-17.2
			c-10.5-8.1-18.2-19-22.9-32.7c-4.8-13.7-7.1-30.8-7.1-51.5c0-23.7,2.4-43.3,7.1-58.7c4.8-15.5,12.4-27.8,22.9-36.9
			c10.5-9.1,24.2-15.5,41-19.2c16.8-3.6,37.2-5.5,61.3-5.5c17.2,0,32,1.3,44.6,3.8c12.6,2.5,23.4,6.1,32.3,10.9
			c9,4.8,16.2,10.5,21.8,17.3c5.6,6.8,10,13.9,13.2,21.3c3.2,7.5,5.4,16.2,6.6,26.2c1.2,10,1.8,20.6,1.8,31.8l-3,12h-213.5
			c0,16.1,1.6,29.4,4.9,39.7c3.3,10.3,8.6,17.9,16.2,22.6c7.5,4.8,17.4,7.8,29.7,9.1c12.3,1.3,27.4,1.9,45.5,1.9
			c16.5,0,30.2-0.4,41.1-1.3c10.8-0.9,19.5-2.6,25.8-5.1c6.4-2.5,10.9-6,13.4-10.4c2.6-4.4,3.9-10.2,3.9-17.4h36.1
			c0,11.7-2,21.6-6.1,29.8c-4.1,8.2-10.8,14.8-20.2,19.9c-9.4,5.1-21.8,8.8-37.1,11.1C1579.4,495.1,1560.4,496.3,1537.9,496.3z
			 M1537.9,299.7c-12,0-22.8,0.3-32.2,0.8c-9.5,0.5-17.7,1.6-24.8,3.3c-7.1,1.7-13.1,4.1-18.1,7.3c-5,3.2-9.1,7-12.1,11.3
			c-3.1,4.3-5.3,10.4-6.8,18.2c-1.4,7.8-2.2,17.3-2.2,28.3h180.4c0-14.7-1.6-26.2-4.7-34.5c-3.1-8.3-8.1-15.2-14.8-20.6
			c-6.8-5.4-15.5-9.1-26.1-11.1C1565.7,300.7,1552.9,299.7,1537.9,299.7z"/>
		<path id="XMLID_26_" class="st0" d="M1832.6,496.3c-24.1,0-44.5-1.8-61.3-5.3c-16.8-3.5-30.4-9.6-41-18.2
			c-10.5-8.6-18.2-20.2-22.9-34.7c-4.8-14.5-7.1-32.8-7.1-54.8c0-22.4,2.4-40.9,7.1-55.5c4.8-14.7,12.4-26.3,22.9-34.9
			s24.2-14.6,41-18.1c16.8-3.5,37.2-5.2,61.3-5.2c17,0,31.3,0.9,42.9,2.6c11.5,1.8,21,3.9,28.3,6.6c7.3,2.6,12.9,5.5,16.7,8.6
			c3.8,3.1,6.6,5.9,8.4,8.6v-92.5h36.1v288.7h-36.1v-33.9l-9,11.2c-5.3,5.4-11.1,9.7-17.5,13c-6.4,3.3-15.3,6.4-26.9,9.4
			S1849.6,496.3,1832.6,496.3z M1832.6,466.2c12,0,22.7-0.3,32.1-0.8c9.4-0.6,17.7-1.8,24.8-3.6c7.1-1.9,13.2-4.6,18.1-8.3
			c4.9-3.7,9-8.5,12.1-14.6c3.1-6.1,5.4-13.6,6.9-22.6c1.4-9,2.2-19.8,2.2-32.4c0-13.1-0.7-24.3-2.2-33.5c-1.4-9.2-3.7-17-6.9-23.2
			c-3.1-6.3-7.2-11.2-12.1-14.8c-5-3.6-11-6.4-18.1-8.3c-7.1-1.9-15.4-3.1-24.8-3.6c-9.4-0.5-20.1-0.7-32.1-0.7
			c-14,0-26.2,0.4-36.4,1.3c-10.2,0.9-18.9,2.4-26,4.6c-7.1,2.2-12.9,5.3-17.4,9.3c-4.4,4-7.9,9-10.3,15.2
			c-2.4,6.2-4.1,13.7-4.9,22.4c-0.8,8.7-1.2,19-1.2,30.8c0,11.6,0.4,21.8,1.2,30.4c0.8,8.6,2.4,16,4.9,22.1
			c2.4,6.1,5.9,11.2,10.3,15.1c4.4,4,10.2,7.1,17.4,9.3c7.1,2.2,15.8,3.8,26,4.6C1806.4,465.8,1818.5,466.2,1832.6,466.2z"/>
		<path id="XMLID_29_" class="st0" d="M2061.1,239.5H2025v-36.1h36.1V239.5z M2025,275.6h36.1v216.5H2025V275.6z"/>
		<path id="XMLID_32_" class="st0" d="M2336.8,462.5c-0.4,1.5-3.2,5.3-8.5,11.3c-3.8,4.5-8.8,8.5-15,11.9
			c-6.3,3.4-14.6,6.1-25.1,8.1c-10.5,1.9-24.2,2.9-41.3,2.9c-22.7,0-42-1.2-58.1-3.5c-16-2.3-29.1-5.9-39.3-10.7
			c-10.2-4.8-17.6-11-22.3-18.5c-4.7-7.5-7-16.5-7-26.9c0-10.9,1.3-20.1,3.9-27.7c2.6-7.6,6.3-13.9,11.3-19.1
			c4.9-5.1,10.9-9.1,17.9-12c7-2.9,15-5.1,24-6.6s18.8-2.4,29.4-2.8c10.6-0.4,22-0.6,34-0.6c17.2,0,31.5,0.7,43,2.2
			c11.5,1.4,21,3.3,28.3,5.5c7.3,2.2,12.9,4.5,16.6,7c3.8,2.5,6.5,4.8,8.1,7c0-14-0.6-26-1.8-35.9c-1.2-9.9-3.1-18.2-5.8-24.8
			c-2.7-6.6-6.2-11.9-10.4-15.9c-4.3-3.9-9.5-6.9-15.7-8.9c-6.2-2-13.4-3.3-21.7-3.9c-8.3-0.6-17.7-0.8-28.4-0.8
			c-16.5,0-30.3,0.4-41.2,1.2c-10.9,0.8-19.5,2.4-25.9,4.8c-6.4,2.4-10.9,5.7-13.5,9.9c-2.6,4.2-3.9,9.7-3.9,16.4h-36.1
			c0-11.4,2-21.1,6.1-28.9c4.1-7.9,10.8-14.3,20.3-19.3c9.5-4.9,21.9-8.6,37.3-10.8c15.4-2.3,34.4-3.4,56.9-3.4
			c22.1,0,40.7,1.8,56,5.5c15.3,3.6,27.7,10,37.1,19.2c9.5,9.1,16.3,21.5,20.5,36.9c4.2,15.5,6.3,35.1,6.3,58.7v102.2h-36.1V462.5z
			 M2253,466.6c15.9,0,29.2-0.7,39.9-2.2c10.7-1.5,19.3-3.7,25.8-6.7c6.5-3,11.1-6.7,13.9-11.1c2.8-4.4,4.1-9.6,4.1-15.6
			c0-5.9-1.6-11-4.8-15.1c-3.2-4.1-8.5-7.5-16-10.1c-7.5-2.6-17.3-4.5-29.6-5.7c-12.3-1.2-27.4-1.8-45.5-1.8
			c-18,0-32.6,0.3-43.7,0.9c-11.1,0.6-19.6,2-25.7,4.3c-6,2.2-10.1,5.5-12.1,9.8c-2.1,4.3-3.1,10.2-3.1,17.6
			c0,7.4,1.1,13.4,3.3,18.1c2.2,4.6,6.7,8.2,13.4,10.8c6.8,2.6,16.5,4.4,29.2,5.3C2215.1,466.1,2232,466.6,2253,466.6z"/>
		<path id="XMLID_35_" class="st0" d="M2433.1,492.1V203.5h216.3c22.1,0,40.6,1.3,55.7,3.9c15.1,2.6,27.6,6.5,37.4,11.7
			c9.8,5.3,17.4,11.8,22.7,19.7c5.3,7.9,9.2,17.2,11.7,27.9c2.4,10.7,3.9,22.8,4.3,36.3c0.4,13.5,0.7,28.4,0.7,44.8
			c0,16.4-0.2,31.4-0.7,44.8c-0.4,13.5-1.9,25.6-4.3,36.3c-2.4,10.7-6.3,20-11.7,27.9c-5.3,7.9-12.9,14.5-22.7,19.7
			c-9.8,5.3-22.3,9.2-37.4,11.7c-15.1,2.6-33.7,3.9-55.7,3.9H2433.1z M2649.4,462.1c15.9,0,29.4-0.4,40.4-1.3
			c11-0.9,20.1-2.7,27.3-5.4c7.1-2.7,12.7-6.6,16.5-11.7c3.9-5.1,6.7-11.9,8.6-20.4c1.8-8.5,2.9-18.9,3.2-31.2
			c0.3-12.3,0.5-27.1,0.5-44.3c0-17.2-0.2-31.9-0.5-44.3c-0.3-12.3-1.4-22.7-3.2-31.2c-1.8-8.5-4.7-15.3-8.6-20.4
			c-3.9-5.1-9.4-9.1-16.5-11.7c-7.1-2.7-16.2-4.5-27.2-5.4c-11-0.9-24.5-1.3-40.5-1.3h-180.2v228.5H2649.4z"/>
		<path id="XMLID_38_" class="st0" d="M3045.6,462.5c-0.4,1.5-3.2,5.3-8.5,11.3c-3.8,4.5-8.8,8.5-15,11.9
			c-6.3,3.4-14.6,6.1-25.1,8.1c-10.5,1.9-24.2,2.9-41.3,2.9c-22.7,0-42-1.2-58.1-3.5c-16-2.3-29.1-5.9-39.3-10.7
			c-10.2-4.8-17.6-11-22.3-18.5c-4.7-7.5-7-16.5-7-26.9c0-10.9,1.3-20.1,3.9-27.7c2.6-7.6,6.3-13.9,11.3-19.1
			c4.9-5.1,10.9-9.1,17.9-12c7-2.9,15-5.1,24-6.6c9-1.5,18.8-2.4,29.4-2.8c10.6-0.4,22-0.6,34-0.6c17.2,0,31.5,0.7,43,2.2
			c11.5,1.4,21,3.3,28.3,5.5c7.3,2.2,12.9,4.5,16.6,7c3.8,2.5,6.5,4.8,8.1,7c0-14-0.6-26-1.8-35.9c-1.2-9.9-3.1-18.2-5.8-24.8
			c-2.7-6.6-6.2-11.9-10.4-15.9c-4.3-3.9-9.5-6.9-15.7-8.9c-6.2-2-13.4-3.3-21.7-3.9c-8.3-0.6-17.7-0.8-28.4-0.8
			c-16.5,0-30.3,0.4-41.2,1.2c-10.9,0.8-19.5,2.4-25.9,4.8c-6.4,2.4-10.9,5.7-13.5,9.9c-2.6,4.2-3.9,9.7-3.9,16.4h-36.1
			c0-11.4,2-21.1,6.1-28.9c4.1-7.9,10.8-14.3,20.3-19.3c9.5-4.9,21.9-8.6,37.3-10.8c15.4-2.3,34.4-3.4,56.9-3.4
			c22.1,0,40.7,1.8,56,5.5c15.3,3.6,27.7,10,37.1,19.2c9.5,9.1,16.3,21.5,20.5,36.9c4.2,15.5,6.3,35.1,6.3,58.7v102.2h-36.1V462.5z
			 M2961.8,466.6c15.9,0,29.2-0.7,39.9-2.2c10.7-1.5,19.3-3.7,25.8-6.7c6.5-3,11.1-6.7,13.9-11.1c2.8-4.4,4.1-9.6,4.1-15.6
			c0-5.9-1.6-11-4.8-15.1c-3.2-4.1-8.5-7.5-16-10.1c-7.5-2.6-17.3-4.5-29.6-5.7c-12.3-1.2-27.4-1.8-45.5-1.8
			c-18,0-32.6,0.3-43.7,0.9c-11.1,0.6-19.6,2-25.7,4.3c-6,2.2-10.1,5.5-12.1,9.8c-2.1,4.3-3.1,10.2-3.1,17.6
			c0,7.4,1.1,13.4,3.3,18.1c2.2,4.6,6.7,8.2,13.4,10.8c6.8,2.6,16.5,4.4,29.2,5.3C2923.8,466.1,2940.7,466.6,2961.8,466.6z"/>
		<path id="XMLID_41_" class="st0" d="M3117.8,275.6l42.1,0l96.2,192.4l91.1-191.8h42.5l-108.4,216.5l-6.1,12.1
			c-2.9,6-5.8,11.6-8.8,17c-3,5.3-6.4,10.2-10.4,14.5c-4,4.4-8.6,8.3-14,11.7c-5.4,3.4-11.8,6.4-19.2,8.8
			c-7.5,2.4-16.3,4.2-26.6,5.5c-10.3,1.3-22.4,1.9-36.5,1.9v-30.1c12,0,22.2-0.5,30.4-1.4c8.3-0.9,15.2-2.3,20.8-4.1
			c5.6-1.8,10.1-4,13.4-6.5c3.4-2.5,6.2-5.3,8.5-8.5c2.3-3.1,4.2-6.5,6-10c1.7-3.6,3.5-7.4,5.5-11.4l-12.4-0.1L3117.8,275.6z"/>
	</g>
</g>
</svg>
